<svg width="40" height="40" viewBox="0 0 40 40" fill="none" xmlns="http://www.w3.org/2000/svg">
<circle cx="20.0001" cy="20" r="20" fill="#DCE5E5"/>
<g clip-path="url(#clip0_45_701)">
<path d="M26.359 26.3537V21.3308C26.359 18.8623 25.8276 16.9766 22.9476 16.9766C21.559 16.9766 20.6333 17.7308 20.2562 18.4508H20.2219V17.1994H17.4962V26.3537H20.3419V21.8108C20.3419 20.6108 20.5647 19.4623 22.039 19.4623C23.4962 19.4623 23.5133 20.8166 23.5133 21.8794V26.3366H26.359V26.3537Z" fill="#005346"/>
<path d="M12.8672 17.2031H15.713V26.3574H12.8672V17.2031Z" fill="#005346"/>
<path d="M14.2903 12.6406C13.3817 12.6406 12.6446 13.3778 12.6446 14.2863C12.6446 15.1949 13.3817 15.9492 14.2903 15.9492C15.1989 15.9492 15.936 15.1949 15.936 14.2863C15.936 13.3778 15.1989 12.6406 14.2903 12.6406Z" fill="#005346"/>
</g>
<defs>
<clipPath id="clip0_45_701">
<rect width="15" height="15" fill="white" transform="translate(12.0001 12)"/>
</clipPath>
</defs>
</svg>
