<svg width="40" height="40" viewBox="0 0 40 40" fill="none" xmlns="http://www.w3.org/2000/svg">
<circle cx="20" cy="20" r="20" fill="#DCE5E5"/>
<g clip-path="url(#clip0_45_708)">
<path d="M26.2337 16.0611C26.0716 15.4721 25.5966 15.0077 24.9943 14.8491C23.8938 14.5547 19.492 14.5547 19.492 14.5547C19.492 14.5547 15.0904 14.5547 13.9899 14.8379C13.3992 14.9964 12.9126 15.4721 12.7505 16.0611C12.4609 17.137 12.4609 19.3683 12.4609 19.3683C12.4609 19.3683 12.4609 21.6108 12.7505 22.6754C12.9128 23.2644 13.3876 23.7288 13.99 23.8874C15.1019 24.1819 19.4922 24.1819 19.4922 24.1819C19.4922 24.1819 23.8938 24.1819 24.9943 23.8986C25.5967 23.7401 26.0716 23.2757 26.2338 22.6868C26.5234 21.6108 26.5234 19.3796 26.5234 19.3796C26.5234 19.3796 26.5349 17.137 26.2337 16.0611ZM18.0906 21.4296V17.307L21.7509 19.3683L18.0906 21.4296Z" fill="#005346"/>
</g>
<defs>
<clipPath id="clip0_45_708">
<rect width="15" height="11" fill="white" transform="translate(12 14)"/>
</clipPath>
</defs>
</svg>
